HIERARCHY
ROOT Hips
{
  OFFSET 5.84602e-005 68.8428 3.50346
  CHANNELS 6 Xposition Yposition Zposition Zrotation Xrotation Yrotation
  JOINT Spine
  {
    OFFSET 0 8.597 -4.6522
    CHANNELS 3 Zrotation Xrotation Yrotation
    JOINT Spine1
    {
      OFFSET 0 7.8454 0.4098
      CHANNELS 3 Zrotation Xrotation Yrotation
      JOINT Spine2
      {
        OFFSET 0 9.7078 -2.1609
        CHANNELS 3 Zrotation Xrotation Yrotation
        JOINT Neck
        {
          OFFSET 0 21.8761 -0.4549
          CHANNELS 3 Zrotation Xrotation Yrotation
          JOINT Head
          {
            OFFSET 0 12.3537 3.3602
            CHANNELS 3 Zrotation Xrotation Yrotation
            End Site
            {
              OFFSET 0.0001 18.9506 0.5657
            }
          }
        }
        JOINT LeftShoulder
        {
          OFFSET 2.2086 21.1115 7.2329
          CHANNELS 3 Zrotation Xrotation Yrotation
          JOINT LeftArm
          {
            OFFSET 13.1193 3.0282 -4.8998
            CHANNELS 3 Zrotation Xrotation Yrotation
            JOINT LeftForeArm
            {
              OFFSET 27.4081 -0.0973053 -0.2375
              CHANNELS 3 Zrotation Xrotation Yrotation
              JOINT LeftHand
              {
                OFFSET 22.8641 0.0662994 -0.1369
                CHANNELS 3 Zrotation Xrotation Yrotation
                JOINT LeftHandIndex1
                {
                  OFFSET 8.8614 0.775009 2.4612
                  CHANNELS 3 Zrotation Xrotation Yrotation
                  JOINT LeftHandIndex2
                  {
                    OFFSET 3.3146 -0.808304 0.5841
                    CHANNELS 3 Zrotation Xrotation Yrotation
                    JOINT LeftHandIndex3
                    {
                      OFFSET 2.2628 -0.552002 0.3989
                      CHANNELS 3 Zrotation Xrotation Yrotation
                      End Site
                      {
                        OFFSET 1.6102 -0.4807 0.2612
                      }
                    }
                  }
                }
                JOINT LeftHandMiddle1
                {
                  OFFSET 8.9937 0.895004 0.2143
                  CHANNELS 3 Zrotation Xrotation Yrotation
                  JOINT LeftHandMiddle2
                  {
                    OFFSET 4.0984 0.0113983 -0.0242
                    CHANNELS 3 Zrotation Xrotation Yrotation
                    JOINT LeftHandMiddle3
                    {
                      OFFSET 2.2716 0.00689697 -0.0138001
                      CHANNELS 3 Zrotation Xrotation Yrotation
                      End Site
                      {
                        OFFSET 2.0404 -0.1441 0.0027
                      }
                    }
                  }
                }
                JOINT LeftHandRing1
                {
                  OFFSET 8.5234 0.597198 -2.0164
                  CHANNELS 3 Zrotation Xrotation Yrotation
                  JOINT LeftHandRing2
                  {
                    OFFSET 3.7188 -0.188293 -0.2328
                    CHANNELS 3 Zrotation Xrotation Yrotation
                    JOINT LeftHandRing3
                    {
                      OFFSET 2.1191 -0.106598 -0.1332
                      CHANNELS 3 Zrotation Xrotation Yrotation
                      End Site
                      {
                        OFFSET 1.8737 -0.2304 -0.0886
                      }
                    }
                  }
                }
                JOINT LeftHandPinky1
                {
                  OFFSET 7.9094 -0.601089 -3.4825
                  CHANNELS 3 Zrotation Xrotation Yrotation
                  JOINT LeftHandPinky2
                  {
                    OFFSET 2.2874 -0.477005 -0.6314
                    CHANNELS 3 Zrotation Xrotation Yrotation
                    JOINT LeftHandPinky3
                    {
                      OFFSET 1.6774 -0.349396 -0.4633
                      CHANNELS 3 Zrotation Xrotation Yrotation
                      End Site
                      {
                        OFFSET 1.4888 -0.4091 -0.3416
                      }
                    }
                  }
                }
                JOINT LeftHandThumb1
                {
                  OFFSET 1.833 -1.3875 1.3896
                  CHANNELS 3 Zrotation Xrotation Yrotation
                  JOINT LeftHandThumb2
                  {
                    OFFSET 3.4129 -1.121 2.5732
                    CHANNELS 3 Zrotation Xrotation Yrotation
                    JOINT LeftHandThumb3
                    {
                      OFFSET 2.2474 -0.804199 1.6192
                      CHANNELS 3 Zrotation Xrotation Yrotation
                      End Site
                      {
                        OFFSET 1.6527 -0.5689 1.1317
                      }
                    }
                  }
                }
              }
            }
          }
        }
        JOINT RightShoulder
        {
          OFFSET -2.2086 21.1115 7.2329
          CHANNELS 3 Zrotation Xrotation Yrotation
          JOINT RightArm
          {
            OFFSET -13.1216 3.0287 -4.9007
            CHANNELS 3 Zrotation Xrotation Yrotation
            JOINT RightForeArm
            {
              OFFSET -27.4081 -0.0973053 -0.2375
              CHANNELS 3 Zrotation Xrotation Yrotation
              JOINT RightHand
              {
                OFFSET -22.8641 0.0664063 -0.1369
                CHANNELS 3 Zrotation Xrotation Yrotation
                JOINT RightHandIndex1
                {
                  OFFSET -8.8614 0.774994 2.4612
                  CHANNELS 3 Zrotation Xrotation Yrotation
                  JOINT RightHandIndex2
                  {
                    OFFSET -3.3146 -0.808304 0.5841
                    CHANNELS 3 Zrotation Xrotation Yrotation
                    JOINT RightHandIndex3
                    {
                      OFFSET -2.2628 -0.552002 0.3989
                      CHANNELS 3 Zrotation Xrotation Yrotation
                      End Site
                      {
                        OFFSET -1.6102 -0.4807 0.2612
                      }
                    }
                  }
                }
                JOINT RightHandMiddle1
                {
                  OFFSET -8.9937 0.894989 0.2143
                  CHANNELS 3 Zrotation Xrotation Yrotation
                  JOINT RightHandMiddle2
                  {
                    OFFSET -4.0984 0.0113983 -0.0242
                    CHANNELS 3 Zrotation Xrotation Yrotation
                    JOINT RightHandMiddle3
                    {
                      OFFSET -2.2716 0.00691223 -0.0138001
                      CHANNELS 3 Zrotation Xrotation Yrotation
                      End Site
                      {
                        OFFSET -2.0404 -0.1441 0.0027
                      }
                    }
                  }
                }
                JOINT RightHandRing1
                {
                  OFFSET -8.5234 0.597198 -2.0164
                  CHANNELS 3 Zrotation Xrotation Yrotation
                  JOINT RightHandRing2
                  {
                    OFFSET -3.7188 -0.188309 -0.2328
                    CHANNELS 3 Zrotation Xrotation Yrotation
                    JOINT RightHandRing3
                    {
                      OFFSET -2.1191 -0.106598 -0.1332
                      CHANNELS 3 Zrotation Xrotation Yrotation
                      End Site
                      {
                        OFFSET -1.8737 -0.2304 -0.0886
                      }
                    }
                  }
                }
                JOINT RightHandPinky1
                {
                  OFFSET -7.9094 -0.601105 -3.4825
                  CHANNELS 3 Zrotation Xrotation Yrotation
                  JOINT RightHandPinky2
                  {
                    OFFSET -2.2874 -0.477005 -0.6314
                    CHANNELS 3 Zrotation Xrotation Yrotation
                    JOINT RightHandPinky3
                    {
                      OFFSET -1.6774 -0.349396 -0.4633
                      CHANNELS 3 Zrotation Xrotation Yrotation
                      End Site
                      {
                        OFFSET -1.4888 -0.4091 -0.3416
                      }
                    }
                  }
                }
                JOINT RightHandThumb1
                {
                  OFFSET -1.833 -1.38751 1.3896
                  CHANNELS 3 Zrotation Xrotation Yrotation
                  JOINT RightHandThumb2
                  {
                    OFFSET -3.41299 -1.12099 2.5732
                    CHANNELS 3 Zrotation Xrotation Yrotation
                    JOINT RightHandThumb3
                    {
                      OFFSET -2.24741 -0.804108 1.6192
                      CHANNELS 3 Zrotation Xrotation Yrotation
                      End Site
                      {
                        OFFSET -1.6527 -0.5689 1.1317
                      }
                    }
                  }
                }
              }
            }
          }
        }
      }
    }
  }
  JOINT RightUpLeg
  {
    OFFSET -9.1966 3.8861 -0.7581
    CHANNELS 3 Zrotation Xrotation Yrotation
    JOINT RightLeg
    {
      OFFSET -0.7359 -41.0265 0
      CHANNELS 3 Zrotation Xrotation Yrotation
      JOINT RightFoot
      {
        OFFSET 0 -40.2855 0
        CHANNELS 3 Zrotation Xrotation Yrotation
        JOINT RightToeBase
        {
          OFFSET 0 -5.6122 11.7359
          CHANNELS 3 Zrotation Xrotation Yrotation
          End Site
          {
            OFFSET 0 0 7.8731
          }
        }
      }
    }
  }
  JOINT LeftUpLeg
  {
    OFFSET 9.1965 3.8864 -0.7581
    CHANNELS 3 Zrotation Xrotation Yrotation
    JOINT LeftLeg
    {
      OFFSET 0.7359 -41.0268 0
      CHANNELS 3 Zrotation Xrotation Yrotation
      JOINT LeftFoot
      {
        OFFSET 0 -40.2855 0
        CHANNELS 3 Zrotation Xrotation Yrotation
        JOINT LeftToeBase
        {
          OFFSET 0 -5.6122 11.7359
          CHANNELS 3 Zrotation Xrotation Yrotation
          End Site
          {
            OFFSET 0 0 7.8731
          }
        }
      }
    }
  }
}
MOTION
Frames:	5
Frame Time:	0.0333333
5.84602e-005 68.8428 3.50346 0 0 -0 0 0 -0 0 0 -0 0 0 -0 0 0 -0 0 0 -0 0 0 -0 0 0 -0 0 0 -0 0 0 -0 0 0 -0 0 0 -0 0 0 -0 0 0 -0 -0.0146107 -8.87603e-005 -2.63497e-007 2.99804e-018 -2.42657e-020 -1.42182e-022 0 0 -0 -0.0187562 -0.001176 5.858e-005 5.06224e-018 3.88251e-019 1.21329e-020 0 0 -0 -0.012269 -0.00324817 0.000675346 -1.74678e-018 3.88251e-019 -0 0 0 -0 0 0 -0 0 0 -0 0 0 -0 0 0 -0 0 0 -0 0 0 -0 0 0 -0 0 0 -0 0 0 -0 0 0 -0 0.0149955 -9.10982e-005 2.64101e-007 -9.69331e-018 1.21329e-020 -4.7394e-023 0 0 -0 0.0189956 -0.00119102 -5.96516e-005 -5.41541e-019 0 2.42657e-020 0 0 -0 0.0122698 -0.00324857 -0.000673756 -2.00796e-019 0 -1.94126e-019 0 0 -0 0 0 -0 0 0 -0 3.39842 1.33031 -0.0637918 -5.65207e-008 0.834868 -0.000436188 -3.39935 -2.16518 -0.0642563 -8.89002e-024 -1.18485e-023 -1.48106e-024 -3.39844 1.35642 0.0640283 -3.18788e-007 0.782166 -0.000588827 3.39931 -2.13858 0.0634662 1.1399e-023 0 -0 
0.864026 66.5521 21.9222 0 29.9987 -0 0.365713 -1.27888 -0.449707 0.721642 -2.56062 -0.891571 0.721642 -2.56061 -0.891572 1.88013e-005 0.225596 -1.89749e-005 -5.47273e-007 0.215064 4.98496e-007 -23.9789 31.0833 -6.22374 -81.6151 -52.4317 -56.2851 -86.9853 -2.66767 -15.2571 157.657 39.9405 -131.459 4.35059e-007 -4.34617e-007 -1.77876e-007 6.36111e-015 -5.36719e-015 -2.38542e-015 4.35059e-007 -4.34617e-007 -1.77876e-007 4.35059e-007 -4.34617e-007 -1.77876e-007 -0.0146432 -9.10012e-005 -2.48283e-006 4.35057e-007 -4.34594e-007 -1.77932e-007 4.35059e-007 -4.34617e-007 -1.77876e-007 -0.0186824 -0.00117257 5.83823e-005 4.35055e-007 -4.34588e-007 -1.77952e-007 4.35059e-007 -4.34617e-007 -1.77876e-007 -0.0123088 -0.00325965 0.000683103 4.3505e-007 -4.34601e-007 -1.77935e-007 4.35059e-007 -4.34617e-007 -1.77876e-007 6.36111e-015 -5.36719e-015 -2.38542e-015 4.35059e-007 -4.34617e-007 -1.77876e-007 23.0653 29.2006 6.51999 81.4892 -52.5811 56.2909 86.6304 -2.82031 15.411 -163.208 40.8492 139.691 2.90025e-007 2.8976e-007 -1.18565e-007 -1.45013e-007 -1.4488e-007 5.92826e-008 1.1601e-006 1.15904e-006 -4.74261e-007 2.90025e-007 2.8976e-007 -1.18565e-007 0.0149194 -9.07539e-005 1.34167e-006 1.1601e-006 1.15898e-006 -4.74412e-007 2.90025e-007 2.8976e-007 -1.18565e-007 0.0190255 -0.00119278 -5.06281e-005 1.16009e-006 1.15896e-006 -4.74465e-007 2.90025e-007 2.8976e-007 -1.18565e-007 0.0122132 -0.00323127 -0.000666024 1.16008e-006 1.159e-006 -4.74417e-007 2.90025e-007 2.8976e-007 -1.18565e-007 -1.45013e-007 -1.4488e-007 5.92826e-008 1.1601e-006 1.15904e-006 -4.74261e-007 -22.8394 -54.2257 -16.1638 5.22449 31.4282 -5.26363 -0.855202 9.53659 -22.2989 7.95139e-016 -1.59028e-015 3.18055e-015 22.2016 -54.8331 18.575 -5.22655 32.8729 5.43423 3.28226 8.01287 19.9184 2.98539e-006 1.78128e-006 -3.53192e-006 
0.863972 66.5442 22.5002 0 29.0021 -0 0.362299 -0.925509 -0.45536 0.717371 -1.85381 -0.905033 0.717371 -1.85381 -0.905033 2.07252e-005 0.305068 -3.11419e-005 3.91275e-007 0.290723 1.92406e-007 -23.9788 31.0833 -6.22377 -81.6152 -52.4317 -56.2851 -86.9853 -2.66766 -15.2571 157.163 39.475 -131.325 -5.44009e-007 -2.86838e-007 3.69215e-008 -1.44887e-007 1.44926e-007 5.94702e-008 -1.44887e-007 1.44926e-007 5.94701e-008 -5.44009e-007 -2.86838e-007 3.69215e-008 -0.0146217 -8.94789e-005 9.39924e-006 -1.44886e-007 1.44919e-007 5.94888e-008 -5.44009e-007 -2.86838e-007 3.69215e-008 -0.0188021 -0.00117793 5.89407e-005 -1.44886e-007 1.44917e-007 5.94954e-008 -5.44009e-007 -2.86838e-007 3.69215e-008 -0.0123262 -0.00325974 0.000678138 -1.44884e-007 1.44921e-007 5.94898e-008 -5.44009e-007 -2.86838e-007 3.69215e-008 -1.44887e-007 1.44926e-007 5.94702e-008 -1.44887e-007 1.44926e-007 5.94701e-008 23.0653 29.2006 6.51998 81.4892 -52.581 56.2909 86.6305 -2.82032 15.4109 -162.63 40.4393 139.49 1.44876e-007 1.44928e-007 -5.94881e-008 1.44876e-007 1.44928e-007 -5.94881e-008 -8.69255e-007 -8.69565e-007 3.56929e-007 1.44876e-007 1.44928e-007 -5.94881e-008 0.0150792 -9.08502e-005 -1.482e-006 -8.69251e-007 -8.69518e-007 3.57044e-007 1.44876e-007 1.44928e-007 -5.94881e-008 0.0188809 -0.00118201 -5.87137e-005 -8.69246e-007 -8.69507e-007 3.57081e-007 1.44876e-007 1.44928e-007 -5.94881e-008 0.0123807 -0.00327886 -0.000685717 -8.69236e-007 -8.69533e-007 3.57047e-007 1.44876e-007 1.44928e-007 -5.94881e-008 1.44876e-007 1.44928e-007 -5.94881e-008 -8.69255e-007 -8.69565e-007 3.56929e-007 -23.19 -52.8256 -17.4616 5.21984 31.4085 -5.261 -1.36425 9.11043 -20.9112 -1.50732e-007 -1.15871e-006 3.17821e-006 22.5318 -53.4331 19.7047 -5.22244 32.8549 5.42822 3.69388 7.54537 18.7014 -3.82944e-007 1.84983e-006 -2.61012e-007 
0.863893 66.5388 23.0787 0 28.0043 -0 0.35886 -0.571328 -0.460933 0.713165 -1.1455 -0.918347 0.713166 -1.1455 -0.918348 4.96646e-005 0.384452 -8.9793e-005 -3.62926e-007 0.366394 -3.27992e-007 -23.9787 31.0832 -6.22386 -81.6152 -52.4316 -56.2851 -86.9853 -2.66767 -15.2571 156.674 39.0084 -131.196 3.18055e-015 -5.96354e-015 -0 -1.01327e-006 1.01486e-006 4.17551e-007 -3.18055e-015 -1.51076e-014 2.38542e-015 3.18055e-015 -5.96354e-015 -0 -0.0146316 -9.08975e-005 -3.73852e-006 -6.36111e-015 -3.97569e-016 -7.95139e-016 3.18055e-015 -5.96354e-015 -0 -0.0187848 -0.00118081 5.93499e-005 -5.31736e-007 -2.84152e-007 2.84927e-008 3.18055e-015 -5.96354e-015 -0 -0.0123118 -0.0032586 0.000677424 -5.32315e-007 -2.83962e-007 2.84632e-008 3.18055e-015 -5.96354e-015 -0 -1.01327e-006 1.01486e-006 4.17551e-007 -3.18055e-015 -1.51076e-014 2.38542e-015 23.0654 29.2005 6.51994 81.4892 -52.581 56.2909 86.6305 -2.82032 15.4109 -162.058 40.0277 139.296 -1.30264e-006 -1.30478e-006 5.3726e-007 -1.44738e-006 -1.44975e-006 5.96955e-007 -4.34213e-007 -4.34925e-007 1.79087e-007 -1.30264e-006 -1.30478e-006 5.3726e-007 0.0149411 -8.98173e-005 1.1181e-005 -4.34211e-007 -4.34902e-007 1.79144e-007 -1.30264e-006 -1.30478e-006 5.3726e-007 0.0189607 -0.00119181 -6.38803e-005 -4.34208e-007 -4.34896e-007 1.79163e-007 -1.30264e-006 -1.30478e-006 5.3726e-007 0.0122536 -0.0032486 -0.000677435 -4.34204e-007 -4.34909e-007 1.79145e-007 -1.30264e-006 -1.30478e-006 5.3726e-007 -1.44738e-006 -1.44975e-006 5.96955e-007 -4.34213e-007 -4.34925e-007 1.79087e-007 -23.4802 -51.4172 -18.71 5.21551 31.39 -5.2577 -1.86294 8.67042 -19.5262 -1.8497e-006 3.80517e-007 -9.4021e-008 22.808 -52.0253 20.7895 -5.21855 32.8379 5.42164 4.09538 7.06783 17.4871 1.16169e-006 -5.67922e-007 -3.17973e-006 
0.863782 66.5358 23.6575 0 27.0054 -0 0.355447 -0.216517 -0.466504 0.709125 -0.436002 -0.931667 0.709125 -0.435994 -0.931666 -9.37203e-005 0.464539 0.000123343 -2.18048e-008 0.442052 -4.12191e-007 -23.9791 31.0833 -6.22355 -81.6152 -52.4316 -56.2851 -86.9853 -2.66767 -15.2571 156.188 38.5408 -131.073 1.44617e-007 -1.45035e-007 -5.98316e-008 2.89235e-007 -2.90069e-007 -1.19663e-007 -8.67704e-007 8.70207e-007 3.5899e-007 1.44617e-007 -1.45035e-007 -5.98316e-008 -0.0146528 -8.87379e-005 1.0462e-006 -8.677e-007 8.70161e-007 3.59102e-007 1.44617e-007 -1.45035e-007 -5.98316e-008 -0.0188594 -0.00118653 6.11282e-005 -8.67695e-007 8.70149e-007 3.59142e-007 1.44617e-007 -1.45035e-007 -5.98316e-008 -0.0123148 -0.00326026 0.000679199 -8.67685e-007 8.70175e-007 3.59108e-007 1.44617e-007 -1.45035e-007 -5.98316e-008 2.89235e-007 -2.90069e-007 -1.19663e-007 -8.67704e-007 8.70207e-007 3.5899e-007 23.0651 29.2008 6.52009 81.4892 -52.581 56.2909 86.6305 -2.82032 15.411 -161.491 39.6145 139.108 4.33794e-007 4.35068e-007 -1.79713e-007 4.33794e-007 4.35068e-007 -1.79713e-007 4.33794e-007 4.35068e-007 -1.79713e-007 4.33794e-007 4.35068e-007 -1.79713e-007 0.0149347 -9.20153e-005 -6.61254e-008 4.33792e-007 4.35045e-007 -1.7977e-007 4.33794e-007 4.35068e-007 -1.79713e-007 0.0190264 -0.00118982 -5.38449e-005 4.33789e-007 4.35039e-007 -1.7979e-007 4.33794e-007 4.35068e-007 -1.79713e-007 0.0123214 -0.00325962 -0.000676247 4.33784e-007 4.35052e-007 -1.79772e-007 4.33794e-007 4.35068e-007 -1.79713e-007 4.33794e-007 4.35068e-007 -1.79713e-007 4.33794e-007 4.35068e-007 -1.79713e-007 -23.7151 -50.0019 -19.914 5.21144 31.3727 -5.25375 -2.35077 8.21696 -18.1442 2.1796e-007 -8.16001e-007 -8.7655e-008 23.0348 -50.6107 21.8342 -5.21483 32.8216 5.41448 4.48651 6.58076 16.2756 -3.07893e-007 -1.98208e-007 2.18433e-007 
